<svg width="0" height="0" class="hidden">
  <symbol version="1.1" id="customer_service" xmlns="http://www.w3.org/2000/svg" xmlns:xlink="http://www.w3.org/1999/xlink" x="0px" y="0px" xml:space="preserve" viewBox="0 0 355.438 355.438">
    <path d="M7.999,339.806c-1.001,0-2.02-0.189-3.005-0.589c-4.094-1.661-6.066-6.327-4.405-10.421l22.068-54.39
	c9.5-23.403,26.342-54.327,63.335-55.823c0.313-0.038,0.63-0.057,0.949-0.057h33.005c0.319,0,0.636,0.019,0.949,0.057
	c36.996,1.496,53.838,32.42,63.337,55.822l2.846,7.015l59.311-54.812c3.245-2.999,8.308-2.799,11.305,0.445
	c2.999,3.245,2.8,8.306-0.445,11.305l-67.805,62.663c-1.929,1.783-4.612,2.506-7.173,1.932c-2.563-0.572-4.683-2.366-5.67-4.8
	l-7.194-17.731c-11.43-28.16-24.617-42.187-43.098-45.247l-4.704,22.456l6.293,56.622c0.302,2.72-0.807,5.406-2.94,7.12
	l-14.015,11.26c-1.421,1.142-3.188,1.764-5.011,1.764h-4.974c-1.822,0-3.59-0.622-5.01-1.763l-14.016-11.26
	c-2.134-1.714-3.243-4.4-2.941-7.121l6.295-56.622l-4.705-22.455c-18.48,3.061-31.667,17.088-43.098,45.247l-22.068,54.389
	C14.154,337.921,11.16,339.806,7.999,339.806z M95.379,311.653l8.066,6.48l8.065-6.48l-5.158-46.409h-5.815L95.379,311.653z
	 M99.876,249.244h7.139l3.083-14.717H96.792L99.876,249.244z M347.438,314.278H225.832c-4.418,0-8-3.582-8-8s3.582-8,8-8h113.605
	V67.943H22.341v168.339c0,4.418-3.582,8-8,8s-8-3.582-8-8V59.943c0-4.418,3.582-8,8-8h333.097c4.418,0,8,3.582,8,8v246.335
	C355.438,310.696,351.856,314.278,347.438,314.278z M143.05,276.41c-4.418,0-8-3.582-8-8v-1.089c0-4.418,3.582-8,8-8s8,3.582,8,8
	v1.089C151.05,272.828,147.468,276.41,143.05,276.41z M103.445,203.87c-24.271,0-44.018-19.747-44.018-44.018
	s19.746-44.018,44.018-44.018c2.914,0,5.764,0.285,8.521,0.828c0.161,0.027,0.321,0.06,0.48,0.098
	c19.969,4.166,35.016,21.905,35.016,43.092C147.462,184.124,127.716,203.87,103.445,203.87z M89.161,135.756
	c-8.217,4.89-13.734,13.861-13.734,24.096c0,15.449,12.569,28.018,28.018,28.018s28.018-12.569,28.018-28.018
	c0-11.692-7.199-21.735-17.398-25.927c-3.65,4.823-8.263,8.855-13.586,11.843c-3.854,2.163-8.73,0.792-10.892-3.061
	C88.343,140.492,88.267,137.938,89.161,135.756z M304.059,150.392h-41.058c-4.418,0-8-3.582-8-8s3.582-8,8-8h41.058
	c4.418,0,8,3.582,8,8S308.477,150.392,304.059,150.392z M225.831,150.392h-15.25c-4.418,0-8-3.582-8-8s3.582-8,8-8h15.25
	c4.418,0,8,3.582,8,8S230.249,150.392,225.831,150.392z M304.059,117.016h-82.116c-4.418,0-8-3.582-8-8s3.582-8,8-8h82.116
	c4.418,0,8,3.582,8,8S308.477,117.016,304.059,117.016z M221.949,31.631h-82.12c-4.418,0-8-3.582-8-8s3.582-8,8-8h82.12
	c4.418,0,8,3.582,8,8S226.367,31.631,221.949,31.631z"></path>
    <g></g>
    <g></g>
    <g></g>
    <g></g>
    <g></g>
    <g></g>
    <g></g>
    <g></g>
    <g></g>
    <g></g>
    <g></g>
    <g></g>
    <g></g>
    <g></g>
    <g></g>
  </symbol>
  <symbol id="easy" xmlns="http://www.w3.org/2000/svg" viewBox="0 0 16 16">
    <title></title>
    <ellipse cx="6" cy="5.5" rx="1" ry="1.5"></ellipse>
    <ellipse cx="10" cy="5.5" rx="1" ry="1.5"></ellipse>
    <path d="M8.071,13.071A5.076,5.076,0,0,1,3,8H4.143A3.929,3.929,0,1,0,12,8h1.143A5.077,5.077,0,0,1,8.071,13.071Z"></path>
    <path d="M8,1A7,7,0,1,1,1,8,7.008,7.008,0,0,1,8,1M8,0a8,8,0,1,0,8,8A8,8,0,0,0,8,0Z"></path>
  </symbol>
  <symbol version="1.1" id="expert" xmlns="http://www.w3.org/2000/svg" xmlns:xlink="http://www.w3.org/1999/xlink" x="0px" y="0px" xml:space="preserve" viewBox="0 0 424.661 424.661">
    <path d="M145.793,373.661c0,5.523-4.477,10-10,10H43.722c-2.971,0-5.788-1.321-7.688-3.605c-1.899-2.284-2.686-5.295-2.145-8.216
	l23.567-127.233c6.697-36.158,38.392-61.429,80.746-64.382c19.813-1.381,39.71,2.562,56.036,11.103
	c18.49,9.673,31.522,24.546,37.69,43.012c0.623,1.864,1.183,3.793,1.663,5.732c1.329,5.36-1.939,10.784-7.3,12.112
	c-5.359,1.325-10.783-1.939-12.112-7.3c-0.354-1.426-0.765-2.841-1.221-4.207c-10.285-30.794-44.251-42.529-73.366-40.501
	c-25.034,1.745-56.416,15.382-62.471,48.073L55.745,363.661h80.049C141.316,363.661,145.793,368.138,145.793,373.661z
	 M96.482,138.018c-11.37-11.804-24.635-33.626-23.253-70.552c1.569-42.011,34.078-63.725,65.838-67.303
	c2.174-0.245,11.989-0.21,14.394,0.081c31.538,3.813,63.588,25.516,65.149,67.223c1.381,36.926-11.884,58.749-23.255,70.552
	c-13.183,13.686-30.739,21.223-49.437,21.223C127.222,159.241,109.665,151.704,96.482,138.018z M103.606,39.142
	c12.324,4.938,26.963,7.822,42.313,8.235c15.351-0.413,29.989-3.297,42.312-8.235c-10.161-12.529-26.362-18.817-42.312-19.459
	C129.968,20.325,113.766,26.613,103.606,39.142z M110.886,124.143c9.378,9.736,21.819,15.098,35.032,15.098
	s25.654-5.362,35.033-15.098c12.446-12.921,18.558-32.261,17.672-55.93c-0.148-3.95-0.675-7.644-1.527-11.092
	c-14.925,6.2-32.59,9.795-50.927,10.256c-0.083,0.002-0.167,0.003-0.251,0.003s-0.168-0.001-0.251-0.003
	c-18.337-0.461-36.001-4.057-50.926-10.256c-0.851,3.448-1.379,7.141-1.526,11.091C92.33,91.882,98.44,111.222,110.886,124.143z
	 M349.872,404.661H165.432c-5.522,0-10,4.477-10,10s4.478,10,10,10h184.439c5.522,0,10-4.477,10-10S355.394,404.661,349.872,404.661
	z M170.331,273.287v103.276c0,5.523,4.354,10.098,9.877,10.098h154.886c5.522,0,10.237-4.575,10.237-10.098v-16.409
	c0-5.523-4.478-10-10-10s-10,4.477-10,10v6.506h-135v-83h56.798c5.522,0,10-4.477,10-10s-4.478-10-10-10h-66.921
	C174.685,263.661,170.331,267.764,170.331,273.287z M390.939,273.661c0,5.523-4.478,10-10,10h-10.61
	c-0.784,2-1.876,5.198-3.25,7.651l7.513,7.322c3.905,3.905,3.913,10.237,0.007,14.142c-1.953,1.953-4.497,2.929-7.057,2.929
	s-5.089-0.976-7.042-2.929l-7.45-7.509c-2.453,1.374-4.72,2.47-7.72,3.254v10.611c0,5.523-4.478,10-10,10s-10-4.477-10-10v-10.611
	c-3-0.784-5.503-1.875-7.956-3.249l-7.628,7.516c-1.953,1.952-4.512,2.94-7.071,2.94s-5.118-0.953-7.071-2.905
	c-3.905-3.905-3.905-10.191,0-14.096l7.511-7.418c-1.373-2.453-2.469-5.65-3.253-7.65h-10.613c-5.523,0-10.001-4.477-10.001-10
	s4.477-10,9.999-10h10.614c0.784-3,1.887-5.572,3.261-8.026l-7.502-7.694c-3.905-3.905-3.892-10.236,0.013-14.142
	c3.905-3.906,10.265-3.907,14.172-0.002l7.57,7.509c2.453-1.374,4.956-2.47,7.956-3.254v-10.611c0-5.523,4.478-10,10-10
	s10,4.477,10,10v10.611c3,0.784,5.268,1.893,7.721,3.267l7.387-7.496c3.904-3.906,10.236-3.884,14.143,0.021
	c3.905,3.905,3.906,10.283,0.002,14.189l-7.508,7.604c1.374,2.454,2.47,5.025,3.254,8.025h10.609
	C386.461,263.661,390.939,268.138,390.939,273.661z M351.728,273.286c0-9.172-7.462-16.634-16.633-16.634
	s-16.633,7.462-16.633,16.634c0,9.172,7.462,16.634,16.633,16.634S351.728,282.459,351.728,273.286z"></path>
    <g></g>
    <g></g>
    <g></g>
    <g></g>
    <g></g>
    <g></g>
    <g></g>
    <g></g>
    <g></g>
    <g></g>
    <g></g>
    <g></g>
    <g></g>
    <g></g>
    <g></g>
  </symbol>
  <symbol version="1.1" id="menu" xmlns="http://www.w3.org/2000/svg" xmlns:xlink="http://www.w3.org/1999/xlink" x="0px" y="0px" xml:space="preserve" viewBox="0 0 330 330">
    <g>
      <path d="M315,0H15C6.716,0,0,6.716,0,15v300c0,8.284,6.716,15,15,15h300c8.284,0,15-6.716,15-15V15C330,6.716,323.284,0,315,0z
		 M300,300H30V30h270V300z"></path>
      <path d="M90.001,109.999h150c8.284,0,15-6.716,15-15s-6.716-15-15-15h-150c-8.284,0-15,6.716-15,15S81.717,109.999,90.001,109.999z
		"></path>
      <path d="M90.001,179.999h150c8.284,0,15-6.716,15-15c0-8.284-6.716-15-15-15h-150c-8.284,0-15,6.716-15,15
		C75.001,173.283,81.717,179.999,90.001,179.999z"></path>
      <path d="M90.001,249.999h150c8.284,0,15-6.716,15-15c0-8.284-6.716-15-15-15h-150c-8.284,0-15,6.716-15,15
		C75.001,243.283,81.717,249.999,90.001,249.999z"></path>
    </g>
    <g></g>
    <g></g>
    <g></g>
    <g></g>
    <g></g>
    <g></g>
    <g></g>
    <g></g>
    <g></g>
    <g></g>
    <g></g>
    <g></g>
    <g></g>
    <g></g>
    <g></g>
  </symbol>
  <symbol xmlns="http://www.w3.org/2000/svg" viewBox="0 0 64 64" id="payment">
    <g id="a"></g>
    <g id="b">
      <path d="M31.9453,39.0068c-.7568,.0713-1.7139-.9551-1.958-1.3271-.7393-1.1685-2.3623-1.5688-3.6221-.8892-1.166,.6299-1.5684,1.9819-1.002,3.3652,.7097,1.7314,3.1876,3.5554,5.9087,3.8038l.1058,.5404c.1057,.6613,1.1348,.6733,1.2446,0,.0115-.1023,.0632-.3221,.1124-.5558,2.3205-.2737,4.3235-1.5057,5.403-3.369,1.1855-2.0444,1.1045-4.4658-.2236-6.6436-.8662-1.4214-2.457-2.4771-3.9961-3.4976-1.6895-1.1211-2.5996-1.8423-2.7002-2.1226-.0586-.3989,.0547-.8291,.2861-1.0952,.1533-.1748,.3369-.2578,.6084-.2773,.6387-.0435,1.0127,.3979,1.0713,.4727,.8115,1.1289,2.4102,1.4399,3.6309,.7124,1.2061-.7153,1.5557-2.1621,.832-3.4404-.5899-1.0421-2.3907-2.5522-4.9328-2.7259-.0421-.1948-.0815-.3682-.0914-.4558-.1098-.6733-1.1389-.6613-1.2446,0l-.0983,.5021c-1.5419,.2081-2.9144,.9194-3.8947,2.0409-1.1826,1.3506-1.71,3.1543-1.4473,4.9492,.3701,2.5137,2.7773,4.1113,4.9014,5.521,.8633,.5732,2.1689,1.4395,2.4492,1.9009,.2793,.4575,.5352,1.1357,.168,1.7686-.2754,.4761-.8242,.7754-1.5107,.8223Zm2.1963-3.1113c-.3662-.603-1.416-1.3281-2.75-2.2134-1.9502-1.2944-4.1602-2.7612-4.4639-4.833-.2207-1.5044,.2207-3.0156,1.209-4.146,.8975-1.0259,2.1924-1.6484,3.6465-1.7529,2.4873-.1753,4.4082,1.1934,4.9932,2.2266,.4512,.7964,.2568,1.6548-.4727,2.0874-.7676,.457-1.8047,.2632-2.3193-.4502-.123-.1587-.791-.958-1.9395-.8726-.541,.0386-.9648,.2402-1.2939,.6177-.4219,.4844-.623,1.2109-.5225,1.8975,.1006,.6792,1.1797,1.5117,3.1367,2.8105,1.4473,.9604,2.9443,1.9536,3.6953,3.1851,1.1309,1.855,1.208,3.9038,.2119,5.6216-.9736,1.6807-2.8428,2.7734-4.999,2.9219-2.9434,.2075-5.418-1.8364-5.9844-3.2188-.2939-.7158-.3027-1.645,.5508-2.1064,.2705-.1455,.5654-.2148,.8564-.2148,.5781,0,1.1387,.2725,1.4502,.7651,.3496,.5332,1.5557,1.8809,2.874,1.7837,1.0166-.0698,1.8555-.5503,2.3008-1.3179,.4795-.8262,.415-1.8174-.1797-2.791Zm22.8584-15.3955v25c0,1.3784-1.1211,2.5-2.5,2.5H9.5c-1.3789,0-2.5-1.1216-2.5-2.5V20.5c0-1.3784,1.1211-2.5,2.5-2.5h.9648c.2764,0,.5,.2236,.5,.5s-.2236,.5-.5,.5h-.9648c-.8271,0-1.5,.6729-1.5,1.5v25c0,.8271,.6729,1.5,1.5,1.5H54.5c.8271,0,1.5-.6729,1.5-1.5V20.5c0-.8271-.6729-1.5-1.5-1.5H20.5166c-.2764,0-.5-.2236-.5-.5s.2236-.5,.5-.5H54.5c1.3789,0,2.5,1.1216,2.5,2.5Zm-40.6494,2.5278c1.0273-.4077,1.2979-.6787,1.7061-1.7056,.1523-.3809,.7773-.3809,.9297,0,.4082,1.0269,.6787,1.2979,1.7061,1.7056,.1904,.0757,.3154,.2598,.3154,.4648s-.125,.3892-.3154,.4648c-1.0273,.4077-1.2979,.6792-1.7061,1.7061-.0762,.1904-.2598,.3154-.4648,.3154s-.3887-.125-.4648-.3154c-.4082-1.0269-.6787-1.2983-1.7061-1.7061-.1904-.0757-.3154-.2598-.3154-.4648s.125-.3892,.3154-.4648Zm-4.3389-5.5376c0-.2051,.125-.3892,.3154-.4648,1.0273-.4077,1.2979-.6787,1.7061-1.7056,.1523-.3809,.7773-.3809,.9297,0,.4082,1.0269,.6787,1.2979,1.7061,1.7056,.1904,.0757,.3154,.2598,.3154,.4648s-.125,.3892-.3154,.4648c-1.0273,.4077-1.2979,.6792-1.7061,1.7061-.0762,.1904-.2598,.3154-.4648,.3154s-.3887-.125-.4648-.3154c-.4082-1.0269-.6787-1.2983-1.7061-1.7061-.1904-.0757-.3154-.2598-.3154-.4648Zm6.0195-5.0005c0-.2046,.125-.3892,.3154-.4648,1.0264-.4077,1.2969-.6792,1.7051-1.7061,.1523-.3809,.7773-.3809,.9297,0,.4082,1.0269,.6787,1.2983,1.7061,1.7061,.1904,.0757,.3154,.2598,.3154,.4648s-.125,.3892-.3154,.4648c-1.0273,.4077-1.2979,.6787-1.7061,1.7056-.0762,.1904-.2598,.3154-.4648,.3154s-.3887-.125-.4648-.3154c-.4082-1.0269-.6787-1.2979-1.7051-1.7056-.1904-.0757-.3154-.2603-.3154-.4648Z"></path>
    </g>
  </symbol>
  <symbol xmlns="http://www.w3.org/2000/svg" viewBox="0 0 512 512" id="progess">
    <path fill="#000" d="M463 20.3L315.6 75.65 368.5 109C274 228 137.3 301.3 21.8 329.2l32.72 59.6C184.3 346.5 321.7 270.2 410.2 135.4l40.3 25.4L463 20.3zm7.7 116.7l-4.8 54.8-51.3-32.4c-1.8 2.7-3.7 5.3-5.6 8V487h78V137h-16.3zM320.1 265c-12.7 11-25.8 21.4-39.1 31.2V487h78V265h-38.9zm-123.7 84c-14.4 7.6-28.8 14.6-43.4 21.2V487h78V349h-34.6zM25 393v94h78v-94h-5.68c-14.82 5.5-29.63 10.6-44.35 15.3l-7.06 2.2-9.6-17.5H25z"></path>
  </symbol>
  <symbol version="1.1" id="progress_chart" xmlns="http://www.w3.org/2000/svg" xmlns:xlink="http://www.w3.org/1999/xlink" x="0px" y="0px" xml:space="preserve" viewBox="0 0 381.88 381.88">
    <g>
      <path d="M345.333,41.338H36.547H0v11.934h36.547v216.299h139.989l-62.533,62.533l8.437,8.437l62.533-62.533
		v61.674h11.934v-61.674l60.856,60.856l8.437-8.437l-60.856-60.856h139.989V53.272h36.547V41.338H345.333z M264.863,162.424
		l-58.726-16.009l-34.924,50.73l-63.273-33.468l-28.689,62.151l-10.836-5l33.963-73.589l65.015,34.399l33.695-48.964l58.004,15.812
		l42.269-73.566l10.347,5.943L264.863,162.424z"></path>
    </g>
    <g></g>
    <g></g>
    <g></g>
    <g></g>
    <g></g>
    <g></g>
    <g></g>
    <g></g>
    <g></g>
    <g></g>
    <g></g>
    <g></g>
    <g></g>
    <g></g>
    <g></g>
  </symbol>
  <symbol version="1.1" id="search" xmlns="http://www.w3.org/2000/svg" xmlns:xlink="http://www.w3.org/1999/xlink" x="0px" y="0px" xml:space="preserve" viewBox="0 0 183.792 183.792">
    <path d="M54.734,9.053C39.12,18.067,27.95,32.624,23.284,50.039c-4.667,17.415-2.271,35.606,6.743,51.22
	c12.023,20.823,34.441,33.759,58.508,33.759c7.599,0,15.139-1.308,22.287-3.818l30.364,52.592l21.65-12.5l-30.359-52.583
	c10.255-8.774,17.638-20.411,21.207-33.73c4.666-17.415,2.27-35.605-6.744-51.22C134.918,12.936,112.499,0,88.433,0
	C76.645,0,64.992,3.13,54.734,9.053z M125.29,46.259c5.676,9.831,7.184,21.285,4.246,32.25c-2.938,10.965-9.971,20.13-19.802,25.806
	c-6.462,3.731-13.793,5.703-21.199,5.703c-15.163,0-29.286-8.146-36.857-21.259c-5.676-9.831-7.184-21.284-4.245-32.25
	c2.938-10.965,9.971-20.13,19.802-25.807C73.696,26.972,81.027,25,88.433,25C103.597,25,117.719,33.146,125.29,46.259z"></path>
    <g></g>
    <g></g>
    <g></g>
    <g></g>
    <g></g>
    <g></g>
    <g></g>
    <g></g>
    <g></g>
    <g></g>
    <g></g>
    <g></g>
    <g></g>
    <g></g>
    <g></g>
  </symbol>
  <symbol id="skills" xmlns="http://www.w3.org/2000/svg" viewBox="0 0 32 32">
    <defs></defs>
    <title>skill-level</title>
    <path d="M30,30H22V4h8Zm-6-2h4V6H24Z"></path>
    <path d="M20,30H12V12h8Zm-6-2h4V14H14Z"></path>
    <path d="M10,30H2V18h8ZM4,28H8V20H4Z"></path>
    <rect id="_Transparent_Rectangle_" width="32" height="32"></rect>
  </symbol>
  <symbol xmlns="http://www.w3.org/2000/svg" viewBox="0 0 24 24" id="testimonial.webp">
    <path fill="none" stroke="#000" stroke-width="2" d="M1,1 L23,1 M10,4.5 L14,4.5 C14,4.5 14,6 14,6 C14,7 12,8 12,8 C12,8 10,7 10,6 C10,6 10,4.5 10,4.5 Z M5,1 C5,1 5,3 5,6 C5,9 10,9.23530084 10,12 C10,14.7646992 5.00000001,15 5,18 C4.99999999,21 5,23 5,23 M19,1 C19,1 19,3 19,6 C19,9 14,9.23530084 14,12 C14,14.7646992 19,15 19,18 C19,21 19,23 19,23 M1,23 L23,23 M8,21 C8,19 12,17 12,17 C12,17 16,19 16,21 C16,21 16,23 16,23 L8,23 L8,21 Z"></path>
  </symbol>
  <symbol version="1.1" id="easy" xmlns="http://www.w3.org/2000/svg" xmlns:xlink="http://www.w3.org/1999/xlink" x="0px" y="0px" xml:space="preserve" viewBox="0 0 359.846 359.846">
    <path d="M46.948,191.206c6.441-9.722,8.338-13.438,1.841-20.386c-3.019-3.227-2.849-8.29,0.379-11.307
	c3.227-3.018,8.291-2.847,11.308,0.379c15.459,16.532,6.042,30.745-0.188,40.151c-6.441,9.722-8.338,13.438-1.84,20.386
	c3.018,3.227,2.848,8.29-0.38,11.307c-1.543,1.442-3.505,2.157-5.462,2.157c-2.138,0-4.271-0.852-5.846-2.536
	C31.301,214.825,40.718,200.612,46.948,191.206z M146.096,66.309c0-27.063,22.016-49.079,49.076-49.079
	c27.063,0,49.08,22.017,49.08,49.079c0,27.063-22.018,49.08-49.08,49.08C168.111,115.389,146.096,93.372,146.096,66.309z
	 M162.096,66.309c0,18.24,14.838,33.08,33.076,33.08c18.24,0,33.08-14.84,33.08-33.08c0-18.24-14.84-33.079-33.08-33.079
	C176.934,33.229,162.096,48.069,162.096,66.309z M225.425,254.731c0.583,0,1.175-0.064,1.767-0.198l23.27-5.246
	c4.311-0.972,7.017-5.253,6.045-9.563s-5.252-7.014-9.563-6.045l-23.27,5.246c-4.31,0.972-7.016,5.253-6.044,9.563
	C218.467,252.207,221.768,254.731,225.425,254.731z M359.846,334.614c0,4.418-3.582,8-8,8H76.089
	c-0.157,0.001-0.315,0.002-0.474,0.002h-0.004c-0.158,0-0.316-0.001-0.475-0.002H38.504c-4.418,0-8-3.582-8-8s3.582-8,8-8h2.672
	c-6.654-7.861-10.672-18.023-10.672-29.105v-13.83H18.589c-1.403,0-2.589,1.187-2.589,2.592v10.591c0,4.418-3.582,8-8,8
	s-8-3.582-8-8v-10.591c0-10.251,8.339-18.592,18.589-18.592h11.915V260.4c0-4.418,3.582-8,8-8h45.186v-87.969
	c0-2.415,1.091-4.701,2.969-6.22c1.878-1.52,4.345-2.107,6.703-1.604l29.054,6.209c14.692-13.293,32.481-20.029,52.913-20.029
	h39.689c20.296,0,37.996,6.646,52.607,19.753c0.102,0.091,0.2,0.184,0.296,0.278l29.068-6.211c2.362-0.505,4.826,0.084,6.703,1.604
	c1.878,1.519,2.969,3.805,2.969,6.22v49.494c19.902,27.805,32.75,46.327,35.367,52.774c1.365,3.366,0.292,7.229-2.614,9.409
	l-35.89,26.911c-0.723,0.554-1.543,0.988-2.43,1.271c-0.001,0-0.001,0-0.002,0c-0.004,0.001-0.009,0.003-0.013,0.004
	c-0.005,0.001-0.006,0.004-0.019,0.006c-0.81,0.254-1.61,0.381-2.48,0.366H120.153c-1.325,8.279-4.912,15.814-10.104,21.948h241.797
	C356.264,326.614,359.846,330.195,359.846,334.614z M306.661,280.668l17.602-13.198c-3.927-6.311-10.933-16.46-17.602-25.936
	V280.668z M143.122,167.241l52.05,11.124l52.057-11.124c-9.456-5.674-20.089-8.454-32.211-8.454h-39.689
	C163.223,158.787,152.581,161.568,143.122,167.241z M99.689,252.4h13.031c4.418,0,8,3.582,8,8v28.266h169.94V174.321l-87.489,18.696
	v71.657c0,4.418-3.582,8-8,8s-8-3.582-8-8v-71.657l-87.482-18.696V252.4z M104.721,268.4H46.504v29.109
	c0,15.922,12.852,28.9,28.727,29.105h0.766c15.873-0.205,28.725-13.183,28.725-29.105V268.4z M139.885,223.75l23.273,5.245
	c0.592,0.134,1.184,0.198,1.766,0.198c3.658,0,6.96-2.525,7.798-6.243c0.971-4.31-1.735-8.592-6.046-9.563l-23.273-5.245
	c-4.303-0.97-8.592,1.734-9.563,6.045C132.868,218.497,135.574,222.779,139.885,223.75z M225.425,222.959
	c0.583,0,1.175-0.064,1.768-0.198l46.54-10.492c4.31-0.972,7.016-5.253,6.044-9.563c-0.971-4.31-5.251-7.015-9.563-6.045
	l-46.54,10.492c-4.31,0.972-7.016,5.253-6.044,9.563C218.467,220.434,221.768,222.959,225.425,222.959z"></path>
    <g></g>
    <g></g>
    <g></g>
    <g></g>
    <g></g>
    <g></g>
    <g></g>
    <g></g>
    <g></g>
    <g></g>
    <g></g>
    <g></g>
    <g></g>
    <g></g>
    <g></g>
  </symbol>
  <symbol version="1.1" id="new" xmlns="http://www.w3.org/2000/svg" xmlns:xlink="http://www.w3.org/1999/xlink" x="0px" y="0px" xml:space="preserve" viewBox="0 0 440.994 440.994">
    <g>
      <g>
        <path d="M435.289,209.037l-53.984-40.794l19.699-64.751c1.312-4.31,0.525-8.984-2.123-12.628
			c-2.647-3.643-6.854-5.833-11.356-5.916l-67.672-1.235l-22.065-63.997c-1.469-4.262-4.855-7.587-9.143-8.979
			c-4.283-1.393-8.979-0.692-12.675,1.892l-55.475,38.814L165.02,12.627c-3.693-2.583-8.387-3.285-12.674-1.892
			c-4.289,1.393-7.672,4.718-9.143,8.979l-22.064,63.996l-67.672,1.236c-4.502,0.083-8.707,2.272-11.355,5.916
			c-2.648,3.644-3.436,8.319-2.125,12.628l19.701,64.75L5.705,209.037C2.111,211.751,0,215.995,0,220.497
			c0,4.503,2.111,8.746,5.705,11.461l53.984,40.794L39.99,337.502c-1.311,4.31-0.523,8.984,2.125,12.628
			c2.648,3.643,6.854,5.833,11.355,5.916l67.672,1.236l22.064,63.996c1.469,4.262,4.854,7.587,9.141,8.979
			c4.285,1.394,8.98,0.692,12.674-1.893l55.475-38.814l55.477,38.815c2.443,1.709,5.324,2.595,8.236,2.595
			c1.488,0,2.986-0.23,4.438-0.703c4.286-1.393,7.672-4.718,9.141-8.979l22.063-63.996l67.675-1.237
			c4.502-0.083,8.707-2.272,11.354-5.916c2.648-3.644,3.437-8.318,2.125-12.628l-19.701-64.749l53.984-40.795
			c3.594-2.715,5.705-6.958,5.705-11.461S438.883,211.75,435.289,209.037z M152.298,253.177c0,3.107-2.519,5.625-5.625,5.625h-6.135
			c-3.106,0-5.625-2.519-5.625-5.625v-41.355c0-4.653-1.426-8.17-4.356-10.752c-2.966-2.612-7.105-3.938-12.301-3.938
			c-5.196,0-9.336,1.325-12.302,3.938c-2.93,2.581-4.355,6.098-4.355,10.751v41.355c0,3.107-2.519,5.625-5.625,5.625h-6.135
			c-3.106,0-5.625-2.519-5.625-5.625v-41.355c0-8.647,3.371-16.144,10.021-22.283c6.605-6.096,14.686-9.186,24.021-9.186
			s17.415,3.09,24.019,9.186c6.65,6.139,10.023,13.637,10.023,22.284V253.177z M237.93,232.466
			c-1.847,5.916-5.064,11.091-9.841,15.824c-7.832,7.832-17.032,11.646-28.109,11.646c-11.076,0-20.275-3.803-28.125-11.625
			c-7.852-7.822-11.668-17.036-11.668-28.167c0-11.077,3.814-20.277,11.665-28.127s17.051-11.666,28.128-11.666
			c10.369,0,18.82,2.812,25.118,8.357c4.396,3.874,7.551,7.424,9.379,10.554c0.77,1.319,0.971,2.895,0.556,4.365
			c-0.416,1.471-1.412,2.708-2.759,3.43l-49.985,26.763c0.578,0.729,1.21,1.438,1.893,2.121c4.396,4.396,9.563,6.533,15.8,6.533
			c6.235,0,11.415-2.148,15.836-6.569c2.372-2.372,4.104-5.04,5.148-7.934c0.908-2.508,3.454-4.037,6.092-3.656l6.303,0.905
			c1.632,0.234,3.08,1.173,3.959,2.566C238.195,229.183,238.419,230.892,237.93,232.466z M356.78,228.468
			c0,8.801-3.137,16.441-9.324,22.71c-6.194,6.278-13.779,9.462-22.545,9.462c-8.856,0-16.606-3.394-23.08-10.097
			c-6.475,6.703-14.224,10.097-23.079,10.097c-8.766,0-16.352-3.184-22.547-9.464c-6.186-6.268-9.322-13.908-9.322-22.708v-42.06
			c0-3.107,2.52-5.625,5.625-5.625h6.33c3.105,0,5.625,2.519,5.625,5.625v42.06c0,4.495,1.229,7.867,3.758,10.311
			c2.557,2.475,6.001,3.676,10.531,3.676c4.525,0,7.956-1.199,10.484-3.665c2.511-2.447,3.729-5.823,3.729-10.321v-42.06
			c0-3.107,2.521-5.625,5.625-5.625h6.482c3.105,0,5.625,2.519,5.625,5.625v42.06c0,4.498,1.22,7.874,3.729,10.321
			c2.528,2.467,5.959,3.666,10.484,3.666c4.53,0,7.975-1.201,10.529-3.673c2.528-2.447,3.76-5.82,3.76-10.313v-42.06
			c0-3.107,2.519-5.625,5.625-5.625h6.33c3.105,0,5.625,2.519,5.625,5.625L356.78,228.468L356.78,228.468z"></path>
        <path d="M199.979,197.812c-6.233,0-11.399,2.148-15.795,6.566c-4.085,4.106-6.219,8.847-6.504,14.456l33.687-17.977
			C208,198.835,204.183,197.812,199.979,197.812z"></path>
      </g>
    </g>
    <g></g>
    <g></g>
    <g></g>
    <g></g>
    <g></g>
    <g></g>
    <g></g>
    <g></g>
    <g></g>
    <g></g>
    <g></g>
    <g></g>
    <g></g>
    <g></g>
    <g></g>
  </symbol>
  <symbol xmlns="http://www.w3.org/2000/svg" viewBox="0 0 24 24" id="quote3">
    <rect x="0" fill="none" width="24" height="24"></rect>
    <g>
      <path d="M11.192 15.757c0-.88-.23-1.618-.69-2.217-.326-.412-.768-.683-1.327-.812-.55-.128-1.07-.137-1.54-.028-.16-.95.1-1.956.76-3.022.66-1.065 1.515-1.867 2.558-2.403L9.373 5c-.8.396-1.56.898-2.26 1.505-.71.607-1.34 1.305-1.9 2.094s-.98 1.68-1.25 2.69-.346 2.04-.217 3.1c.168 1.4.62 2.52 1.356 3.35.735.84 1.652 1.26 2.748 1.26.965 0 1.766-.29 2.4-.878.628-.576.94-1.365.94-2.368l.002.003zm9.124 0c0-.88-.23-1.618-.69-2.217-.326-.42-.77-.692-1.327-.817-.56-.124-1.074-.13-1.54-.022-.16-.94.09-1.95.75-3.02.66-1.06 1.514-1.86 2.557-2.4L18.49 5c-.8.396-1.555.898-2.26 1.505-.708.607-1.34 1.305-1.894 2.094-.556.79-.97 1.68-1.24 2.69-.273 1-.345 2.04-.217 3.1.165 1.4.615 2.52 1.35 3.35.732.833 1.646 1.25 2.742 1.25.967 0 1.768-.29 2.402-.876.627-.576.942-1.365.942-2.368v.01z"></path>
    </g>
  </symbol>
  <symbol xmlns="http://www.w3.org/2000/svg" x="0px" y="0px" enable-background="new 0 0 100 100" xml:space="preserve" viewBox="0 0 100 100" id="quote2">
    <g>
      <path d="M74.1,23.9c-12.1,0-21.3,9.4-21.3,21.4v28.8c0,1.1,0.9,2,2,2h22.8c1.1,0,2-0.9,2-2V51.3c0-1.1-0.9-2-2-2
		H60.8v-4c0-6.7,6.6-13.4,13.3-13.4h3.5c1.1,0,2-0.9,2-2v-4c0-1.1-0.9-2-2-2C77.6,23.9,74.1,23.9,74.1,23.9z M40.8,23.9
		c-12.1,0-21.3,9.4-21.3,21.4v28.8c0,1.1,0.9,2,2,2h22.8c1.1,0,2-0.9,2-2V51.3c0-1.1-0.9-2-2-2H27.6v-4c0-6.7,6.6-13.4,13.3-13.4
		h3.5c1.1,0,2-0.9,2-2v-4c0-1.1-0.9-2-2-2H40.8z"></path>
    </g>
  </symbol>
  <symbol fill="none" xmlns="http://www.w3.org/2000/svg" viewBox="0 0 48 48" id="quote">
    <path fill-rule="evenodd" clip-rule="evenodd" d="M18.8533 9.11599C11.3227 13.9523 7.13913 19.5812 6.30256 26.0029C5.00021 36 13.9404 40.8933 18.4703 36.4967C23.0002 32.1002 20.2848 26.5196 17.0047 24.9942C13.7246 23.4687 11.7187 24 12.0686 21.9616C12.4185 19.9231 17.0851 14.2713 21.1849 11.6392C21.4569 11.4079 21.5604 10.9591 21.2985 10.6187C21.1262 10.3947 20.7883 9.95557 20.2848 9.30114C19.8445 8.72888 19.4227 8.75029 18.8533 9.11599Z" fill="black"></path>
    <path fill-rule="evenodd" clip-rule="evenodd" d="M38.6789 9.11599C31.1484 13.9523 26.9648 19.5812 26.1282 26.0029C24.8259 36 33.7661 40.8933 38.296 36.4967C42.8259 32.1002 40.1105 26.5196 36.8304 24.9942C33.5503 23.4687 31.5443 24 31.8943 21.9616C32.2442 19.9231 36.9108 14.2713 41.0106 11.6392C41.2826 11.4079 41.3861 10.9591 41.1241 10.6187C40.9519 10.3947 40.614 9.95557 40.1105 9.30114C39.6702 8.72888 39.2484 8.75029 38.6789 9.11599Z" fill="black"></path>
  </symbol>
   <symbol version="1.1" id="product" xmlns="http://www.w3.org/2000/svg" xmlns:xlink="http://www.w3.org/1999/xlink" x="0px" y="0px" xml:space="preserve" viewBox="0 0 489.2 489.2">
    <g>
      <g>
        <g>
          <path d="M449.7,377.35c21.8,0,39.5-17.7,39.5-39.5V60.75c0-21.8-17.7-39.5-39.5-39.5H260.2h-18.6c-6,0-10.9,4.9-10.9,10.9v231.7
				c0,7.1,8,11.3,13.8,7.3l60.8-41.7l60.8,41.7c5.9,4,13.8-0.2,13.8-7.3V75.15h55.3v248H53.9v-248h106.5c6.4,0,11.6-5.2,11.6-11.6
				v-30.7c0-6.4-5.2-11.6-11.6-11.6H39.5C17.7,21.25,0,38.95,0,60.75v277.1c0,21.8,17.7,39.5,39.5,39.5h160.9v44.1H169
				c-5.2,0-9.5,4.2-9.5,9.5v27.5c0,5.2,4.2,9.5,9.5,9.5h151.2c5.2,0,9.5-4.2,9.5-9.5v-27.5c0-5.2-4.2-9.5-9.5-9.5h-31.4v-44.1H449.7
				z M351.2,125.05l-20.7,17.6l6.5,26.5c1.2,5-4.2,9-8.5,6.2l-23.1-14.4l-23.1,14.4c-4.3,2.7-9.8-1.3-8.5-6.2l6.5-26.5l-20.7-17.6
				c-3.9-3.3-1.8-9.7,3.3-10.1l27.1-2l10.2-25.3c1.9-4.8,8.6-4.8,10.5,0l10.2,25.3l27.1,2C353,115.25,355.1,121.75,351.2,125.05z"></path>
        </g>
      </g>
    </g>
    <g></g>
    <g></g>
    <g></g>
    <g></g>
    <g></g>
    <g></g>
    <g></g>
    <g></g>
    <g></g>
    <g></g>
    <g></g>
    <g></g>
    <g></g>
    <g></g>
    <g></g>
  </symbol>
  <symbol xmlns="http://www.w3.org/2000/svg" x="0px" y="0px" enable-background="new 0 0 52 52" xml:space="preserve" viewBox="0 0 52 52" id="chevron">
    <path d="M47.6,17.8L27.1,38.5c-0.6,0.6-1.6,0.6-2.2,0L4.4,17.8c-0.6-0.6-0.6-1.6,0-2.2l2.2-2.2
	c0.6-0.6,1.6-0.6,2.2,0l16.1,16.3c0.6,0.6,1.6,0.6,2.2,0l16.1-16.2c0.6-0.6,1.6-0.6,2.2,0l2.2,2.2C48.1,16.3,48.1,17.2,47.6,17.8z"></path>
  </symbol>
</svg>